<?xml version="1.0" encoding="UTF-8" standalone="no"?>
<svg xmlns:svg="http://www.w3.org/2000/svg" xmlns="http://www.w3.org/2000/svg" version="1.1" id="Layer_1" x="0px" y="0px" viewBox="0 0 32 32" enable-background="new 0 0 32 32" xml:space="preserve" width="100%" height="100%">
  <defs id="defs3182">
    <linearGradient id="SVGID_1_" gradientUnits="userSpaceOnUse" x1="28.9818" y1="8.9895" x2="17.3025" y2="1.3844">
      <stop offset="0" style="stop-color:#80C3E6" id="stop3141" />
      <stop offset="1" style="stop-color:#3380C2" id="stop3143" />
    </linearGradient>
    <linearGradient id="SVGID_2_" gradientUnits="userSpaceOnUse" x1="31.1791" y1="26.3249" x2="22.2643" y2="20.4377">
      <stop offset="0" style="stop-color:#F38649" id="stop3150" />
      <stop offset="0.1849" style="stop-color:#F28147" id="stop3152" />
      <stop offset="0.4091" style="stop-color:#EF7242" id="stop3154" />
      <stop offset="0.6537" style="stop-color:#EA5A3A" id="stop3156" />
      <stop offset="0.911" style="stop-color:#E4382E" id="stop3158" />
      <stop offset="1" style="stop-color:#E12A29" id="stop3160" />
    </linearGradient>
    <linearGradient id="SVGID_3_" gradientUnits="userSpaceOnUse" x1="2.3503" y1="13.9602" x2="18.9018" y2="3.6177">
      <stop offset="0" style="stop-color:#42AB4A" id="stop3167" />
      <stop offset="1" style="stop-color:#ADD155" id="stop3169" />
    </linearGradient>
    <linearGradient id="SVGID_4_" gradientUnits="userSpaceOnUse" x1="5.7535" y1="32.5952" x2="19.3224" y2="10.8803">
      <stop offset="0" style="stop-color:#42AB4A" id="stop3174" />
      <stop offset="1" style="stop-color:#ADD155" id="stop3176" />
    </linearGradient>
  </defs>
  <g id="g3138">
    <polygon points="25,13.4 32,3 16,3 13.6,6.9  " id="polygon3145" fill="url(#SVGID_1_)" />
    <polygon points="13.6,6.9 14.9,4.8 25,13.4  " id="polygon3147" opacity="0.15" />
    <polygon points="29,32 29,17 25.1,14.5 18,25.5  " id="polygon3162" fill="url(#SVGID_2_)" />
    <polygon points="18,25.5 19.8,26.6 25.1,14.5  " id="polygon3164" opacity="0.15" />
    <polygon points="3,0 3,15 7.1,17.5 25,13.4  " id="polygon3171" fill="url(#SVGID_3_)" />
    <polygon points="7,18.7 0,29 16,29 25.1,14.5  " id="polygon3178" fill="url(#SVGID_4_)" />
  </g>
</svg>
