<?xml version="1.0" encoding="UTF-8" standalone="no"?>
<!DOCTYPE svg PUBLIC "-//W3C//DTD SVG 1.1//EN" "http://www.w3.org/Graphics/SVG/1.1/DTD/svg11.dtd">
<svg width="100%" height="100%" viewBox="0 0 100 100" version="1.1" xmlns="http://www.w3.org/2000/svg" xmlns:xlink="http://www.w3.org/1999/xlink" xml:space="preserve" style="fill-rule:evenodd;clip-rule:evenodd;stroke-linejoin:round;stroke-miterlimit:1.41421;">
    <path d="M43.6,54.9L34.5,45.8L25.9,54.4L43.6,72.1L74.1,41.6L65.5,33L43.6,54.9Z" style="fill:black;fill-rule:nonzero;"/>
    <path d="M50,8C26.3,8 7,27.3 7,51C7,74.7 26.3,94 50,94C73.7,94 93,74.7 93,51C93,27.3 73.7,8 50,8ZM50,86C30.7,86 15,70.3 15,51C15,31.7 30.7,16 50,16C69.3,16 85,31.7 85,51C85,70.3 69.3,86 50,86Z" style="fill:black;fill-rule:nonzero;"/>
</svg>
