<?xml version="1.0" encoding="UTF-8" standalone="no"?>
<!DOCTYPE svg PUBLIC "-//W3C//DTD SVG 1.1//EN" "http://www.w3.org/Graphics/SVG/1.1/DTD/svg11.dtd">
<svg width="100%" height="100%" viewBox="0 0 38 38" version="1.1" xmlns="http://www.w3.org/2000/svg" xmlns:xlink="http://www.w3.org/1999/xlink" xml:space="preserve" style="fill-rule:evenodd;clip-rule:evenodd;stroke-linejoin:round;stroke-miterlimit:1.41421;">
    <g id="Page-1" transform="matrix(1.14385,0,0,1.14385,1.95482,-0.558183)">
        <g id="Fill-1" transform="matrix(1,0,0,1,0.326087,2.32609)">
            <path d="M14.674,0C6.583,0 0,6.583 0,14.674C0,22.765 6.583,29.348 14.674,29.348C22.765,29.348 29.348,22.765 29.348,14.674C29.348,6.583 22.765,0 14.674,0ZM14.674,26.413C8.201,26.413 2.935,21.147 2.935,14.674C2.935,8.201 8.201,2.935 14.674,2.935C21.147,2.935 26.413,8.201 26.413,14.674C26.413,21.147 21.147,26.413 14.674,26.413Z" style="fill:black;"/>
        </g>
        <g id="Fill-2" transform="matrix(1,0,0,1,0.500087,2.50009)">
            <path d="M19.375,12.875L16.125,12.875L16.125,9.625C16.125,8.728 15.397,8 14.5,8C13.603,8 12.875,8.728 12.875,9.625L12.875,12.875L9.625,12.875C8.728,12.875 8,13.603 8,14.5C8,15.397 8.728,16.125 9.625,16.125L12.875,16.125L12.875,19.375C12.875,20.272 13.603,21 14.5,21C15.397,21 16.125,20.272 16.125,19.375L16.125,16.125L19.375,16.125C20.272,16.125 21,15.397 21,14.5C21,13.603 20.272,12.875 19.375,12.875Z" style="fill:black;"/>
        </g>
    </g>
</svg>
