<?xml version="1.0" encoding="UTF-8" standalone="no"?>
<!DOCTYPE svg PUBLIC "-//W3C//DTD SVG 1.1//EN" "http://www.w3.org/Graphics/SVG/1.1/DTD/svg11.dtd">
<svg width="100%" height="100%" viewBox="0 0 100 100" version="1.1" xmlns="http://www.w3.org/2000/svg" xmlns:xlink="http://www.w3.org/1999/xlink" xml:space="preserve" style="fill-rule:evenodd;clip-rule:evenodd;stroke-linejoin:round;stroke-miterlimit:1.41421;">
    <g id="Page-1" transform="matrix(2.99662,0,0,2.99662,4.78691,5.05071)">
        <path d="M27.441,4.363C25.113,1.575 21.769,0 18.194,0C14.979,0 11.962,1.247 9.699,3.509C5.468,7.742 5.043,14.365 8.454,19.088L0.516,27.024C-0.172,27.712 -0.172,28.796 0.516,29.484C1.204,30.172 2.288,30.172 2.976,29.484L10.879,21.58C12.979,23.188 15.503,24.04 18.159,24.04C21.571,24.04 24.719,22.664 27.047,20.137C31.049,15.742 31.247,8.954 27.441,4.363ZM25.573,19.449C23.605,21.416 20.981,22.532 18.161,22.532C15.374,22.532 12.75,21.449 10.75,19.449C6.65,15.349 6.65,8.725 10.75,4.626C12.718,2.658 15.341,1.543 18.161,1.543C20.981,1.543 23.605,2.624 25.573,4.626C29.672,8.691 29.672,15.349 25.573,19.449Z" style="fill:black;"/>
    </g>
</svg>
