<svg xmlns="http://www.w3.org/2000/svg" viewBox="0 0 562 559">
  <path fill="#000" fill-rule="evenodd" d="M224.930257 151.691484c3.477334 6.947999 20.284 41.107999 22.605333 47.477332 2.318667 6.368 3.476 10.999999-3.477333 15.631999-6.954667 4.632-22.606666 17.948-27.243999 22.001333-4.636 4.052-5.218667 8.105333-1.738667 15.053333 3.477333 6.948 10.813333 29.335999 34.486666 55.874665 18.423999 20.654666 41.175999 34.599999 48.131999 38.651999 6.955999 4.053334 10.715999.433334 14.179999-3.045333 3.113333-3.126667 8.116-6.949333 12.173333-10.422666 4.056-3.474667 6.956-4.632 11.590667-6.948 4.638666-2.316 8.694666-1.158667 12.171999.58 3.477334 1.736 37.678666 15.631999 51.591999 21.421333 13.546666 5.639999 11.712 11.367999 11.926666 15.633333.201334 4.047999.244 8.685333.244 13.315999 0 4.632-1.738666 12.16-8.693333 18.529333-6.956 6.368-23.766666 24.317333-57.963998 24.317333-34.201333 0-67.238665-24.896-71.875998-28.370666-4.638667-3.474667-74.817332-48.993332-104.913331-118.694664-7.16-16.575999-11.434667-29.518666-14.636-39.609332-5.289333-16.644-4.542666-31.790666-2.753333-43.762666 1.993333-13.349333 16.806666-41.107999 33.035999-46.898665 16.233333-5.789333 30.143999-5.789333 33.041333-4.052 2.898666 1.736 4.637333 6.368 8.115999 13.316M51.8302617 278.46748v.093334c.016 41.473332 11.1586664 82.150664 32.2159992 117.635997l5.0093332 8.44-22.9466661 87.474664 85.287998-23.3479994 8.745333 5.4946665c36.797332 23.1359995 79.327998 35.3559992 122.999997 35.3373325 127.430663-.0506667 231.105327-103.7333306 231.105327-231.2199946-.021333-61.733331-24.093332-119.762663-67.781331-163.401329-43.685332-43.635999-101.754664-67.653332-163.510663-67.629332-127.44133.052-231.1253273 103.733331-231.1253273 231.122661M479.662251 81.763485c52.561332 52.499999 81.519998 122.318664 81.550665 196.706662 0 153.270663-124.735997 278.01465975-278.053327 278.07599308-49.010665.02-96.846664-12.78399968-139.018663-37.11866578L.04626302 558.87680669 38.7142621 411.466144c-22.1533328-40.615999-33.83066587-86.345331-33.84533253-132.88533v-.114667C4.86892957 125.211484 129.616926.456821 282.936923.394154c74.301331-.028 144.165329 28.869333 196.725328 81.369331"/>
</svg>
