<?xml version="1.0" encoding="UTF-8" standalone="no"?>
<!DOCTYPE svg PUBLIC "-//W3C//DTD SVG 1.1//EN" "http://www.w3.org/Graphics/SVG/1.1/DTD/svg11.dtd">
<svg width="100%" height="100%" viewBox="0 0 100 100" version="1.1" xmlns="http://www.w3.org/2000/svg" xmlns:xlink="http://www.w3.org/1999/xlink" xml:space="preserve" style="fill-rule:evenodd;clip-rule:evenodd;stroke-linejoin:round;stroke-miterlimit:1.41421;">
    <g transform="matrix(0.757389,0,0,0.757389,-31.7984,-5.28904)">
        <path d="M172.201,33.241C167.15,35.414 162.097,36.771 157.048,37.316C162.751,33.894 166.608,29.06 168.618,22.814C163.402,25.909 157.835,28.027 151.915,29.168C146.7,23.628 140.292,20.857 132.687,20.857C125.409,20.857 119.204,23.423 114.07,28.556C108.937,33.689 106.371,39.894 106.371,47.172C106.371,49.127 106.588,51.137 107.023,53.201C96.268,52.658 86.179,49.956 76.755,45.095C67.331,40.233 59.333,33.756 52.761,25.663C50.371,29.736 49.176,34.163 49.176,38.943C49.176,43.451 50.235,47.634 52.354,51.49C54.472,55.346 57.324,58.469 60.909,60.859C56.672,60.696 52.707,59.582 49.014,57.518L49.014,57.844C49.014,64.198 51.01,69.779 55.002,74.587C58.994,79.395 64.032,82.422 70.115,83.671C67.834,84.268 65.525,84.567 63.19,84.567C61.669,84.567 60.012,84.432 58.22,84.162C59.904,89.431 63,93.761 67.508,97.155C72.016,100.551 77.122,102.301 82.825,102.412C73.266,109.905 62.376,113.653 50.155,113.653C47.819,113.653 45.701,113.547 43.8,113.329C56.021,121.204 69.491,125.142 84.211,125.142C93.553,125.142 102.325,123.663 110.525,120.703C118.728,117.743 125.734,113.777 131.546,108.807C137.358,103.838 142.368,98.121 146.577,91.657C150.786,85.194 153.922,78.446 155.986,71.413C158.05,64.378 159.083,57.332 159.083,50.27C159.083,48.749 159.057,47.609 159.001,46.848C164.162,43.099 168.563,38.563 172.201,33.241Z" style="fill:black;fill-rule:nonzero;"/>
    </g>
</svg>
