<?xml version="1.0" encoding="UTF-8" standalone="no"?>
<!DOCTYPE svg PUBLIC "-//W3C//DTD SVG 1.1//EN" "http://www.w3.org/Graphics/SVG/1.1/DTD/svg11.dtd">
<svg width="100%" height="100%" viewBox="0 0 100 100" version="1.1" xmlns="http://www.w3.org/2000/svg" xmlns:xlink="http://www.w3.org/1999/xlink" xml:space="preserve" style="fill-rule:evenodd;clip-rule:evenodd;stroke-linejoin:round;stroke-miterlimit:1.41421;">
    <g id="Fill-1" transform="matrix(2.2585,0,0,2.2585,11.6055,4.82998)">
        <path d="M32.587,3.57C28.76,10.282 24.924,17.276 21.134,23.805C23.557,28.346 26.081,32.833 28.614,37.464C28.916,38.024 29.614,38.956 29.293,39.553C28.916,40.257 25.264,39.919 24.016,39.919C23.411,39.919 22.521,39.946 22.134,39.809C21.456,39.571 21.134,38.793 20.721,38.033C18.171,33.372 15.418,28.474 12.931,23.805C16.775,17.203 20.832,9.741 24.795,2.783C25.3,1.904 26.034,0.229 26.988,0.073C28.016,-0.091 29.337,0.073 30.705,0.073C31.706,0.073 33.669,-0.174 33.944,0.494C34.294,1.335 32.908,3.012 32.587,3.57M7.233,27.924C6.288,28.282 4.69,28.024 3.369,28.024C2.185,28.024 0.231,28.262 0.029,27.447C-0.127,26.852 0.387,26.303 0.653,25.836C2.516,22.493 4.378,19.18 6.242,15.929C5.378,14.409 4.15,12.294 3.112,10.501C2.735,9.869 1.506,8.258 2.791,7.946C3.672,7.736 5.222,7.946 6.195,7.946C7.296,7.946 8.618,7.791 9.434,8.056C10.132,8.276 10.544,9.073 10.948,9.778C12.113,11.8 13.297,13.989 14.444,15.874C12.783,18.878 10.994,21.991 9.224,25.103C8.729,25.974 8.114,27.586 7.233,27.924" style="fill:black;"/>
    </g>
</svg>
